<svg width="30" height="30" viewBox="0 0 30 30" fill="none" xmlns="http://www.w3.org/2000/svg">
<path d="M15 2.5C21.8925 2.5 27.5 8.1075 27.5 15C27.5 21.8925 21.8925 27.5 15 27.5C8.1075 27.5 2.5 21.8925 2.5 15C2.5 8.1075 8.1075 2.5 15 2.5ZM15 0C6.71625 0 0 6.71625 0 15C0 23.2838 6.71625 30 15 30C23.2838 30 30 23.2838 30 15C30 6.71625 23.2838 0 15 0ZM12.5 12.5H10V15H12.5V22.5H16.25V15H18.525L18.75 12.5H16.25V11.4587C16.25 10.8612 16.37 10.625 16.9475 10.625H18.75V7.5H15.745C13.4975 7.5 12.5 8.49 12.5 10.385V12.5Z" fill="#009EE2"/>
</svg>
