<svg width="36" height="35" viewBox="0 0 36 35" fill="none" xmlns="http://www.w3.org/2000/svg">
<g clip-path="url(#clip0)">
<path d="M18.15 2.91667C26.1913 2.91667 32.7334 9.45875 32.7334 17.5C32.7334 25.5413 26.1913 32.0833 18.15 32.0833C10.1088 32.0833 3.56669 25.5413 3.56669 17.5C3.56669 9.45875 10.1088 2.91667 18.15 2.91667ZM18.15 0C8.48565 0 0.650024 7.83563 0.650024 17.5C0.650024 27.1644 8.48565 35 18.15 35C27.8144 35 35.65 27.1644 35.65 17.5C35.65 7.83563 27.8144 0 18.15 0ZM15.2334 14.5833H12.3167V17.5H15.2334V26.25H19.6084V17.5H22.2625L22.525 14.5833H19.6084V13.3685C19.6084 12.6715 19.7484 12.3958 20.4221 12.3958H22.525V8.75H19.0192C16.3971 8.75 15.2334 9.905 15.2334 12.1158V14.5833Z" fill="black"/>
</g>
<defs>
<clipPath id="clip0">
<rect width="35" height="35" fill="white" transform="translate(0.650024)"/>
</clipPath>
</defs>
</svg>
