<svg width="36" height="35" viewBox="0 0 36 35" fill="none" xmlns="http://www.w3.org/2000/svg">
<g clip-path="url(#clip0)">
<path d="M17.8 2.91667C25.8412 2.91667 32.3833 9.45875 32.3833 17.5C32.3833 25.5413 25.8412 32.0833 17.8 32.0833C9.75874 32.0833 3.21665 25.5413 3.21665 17.5C3.21665 9.45875 9.75874 2.91667 17.8 2.91667ZM17.8 0C8.13561 0 0.299988 7.83563 0.299988 17.5C0.299988 27.1644 8.13561 35 17.8 35C27.4644 35 35.3 27.1644 35.3 17.5C35.3 7.83563 27.4644 0 17.8 0ZM17.7883 21.0117C19.6827 21.0117 21.2212 19.4717 21.2212 17.5788C21.2212 16.5521 20.7662 15.629 20.0502 14.999C19.7964 14.7788 19.5135 14.5935 19.2044 14.4535C18.7712 14.2567 18.2929 14.1473 17.7883 14.1473C17.2823 14.1473 16.8039 14.2567 16.3723 14.4535C16.0646 14.5935 15.7802 14.7788 15.5294 14.999C14.8119 15.629 14.3554 16.5506 14.3554 17.5788C14.3569 19.4717 15.8969 21.0117 17.7883 21.0117ZM17.8 15.0427C19.2014 15.0427 20.3346 16.1773 20.3346 17.5788C20.3346 18.9802 19.2014 20.1163 17.8 20.1163C16.3985 20.1163 15.2654 18.9802 15.2654 17.5788C15.2654 16.1788 16.3985 15.0427 17.8 15.0427ZM21.6077 15.3125H26.55V22.8069C26.55 24.7085 25.0071 26.25 23.1069 26.25H12.5398C10.6367 26.25 9.04999 24.7085 9.04999 22.8069V15.3125H13.9689C13.5737 15.979 13.3331 16.749 13.3331 17.5788C13.3331 20.0404 15.3267 22.034 17.7883 22.034C20.2485 22.034 22.2435 20.039 22.2435 17.5788C22.2435 16.749 22.0044 15.979 21.6077 15.3125ZM23.1069 8.75H14.1542V12.3958H13.425V8.75H12.6958V12.3958H11.9667V8.80688C11.7129 8.84771 11.4694 8.91042 11.2375 9.00229V12.3958H10.5083V9.40479C9.6304 10.029 9.04999 11.0425 9.04999 12.1931V14.5833H14.4983C15.35 13.6471 16.5385 13.125 17.7883 13.125C19.0425 13.125 20.231 13.6529 21.0769 14.5833H26.55V12.1917C26.55 10.2915 25.0071 8.75 23.1069 8.75ZM25.0917 12.5883C25.0917 12.8844 24.8496 13.125 24.5477 13.125H22.7175C22.4185 13.125 22.175 12.8844 22.175 12.5883V10.7435C22.175 10.449 22.4185 10.2083 22.7175 10.2083H24.5477C24.8496 10.2083 25.0917 10.449 25.0917 10.7435V12.5883Z" fill="black"/>
</g>
<defs>
<clipPath id="clip0">
<rect width="35" height="35" fill="white" transform="translate(0.299988)"/>
</clipPath>
</defs>
</svg>
