<svg width="30" height="30" viewBox="0 0 30 30" fill="none" xmlns="http://www.w3.org/2000/svg">
<path d="M15 2.5C21.8925 2.5 27.5 8.1075 27.5 15C27.5 21.8925 21.8925 27.5 15 27.5C8.1075 27.5 2.5 21.8925 2.5 15C2.5 8.1075 8.1075 2.5 15 2.5ZM15 0C6.71625 0 0 6.71625 0 15C0 23.2838 6.71625 30 15 30C23.2838 30 30 23.2838 30 15C30 6.71625 23.2838 0 15 0ZM14.99 18.01C16.6138 18.01 17.9325 16.69 17.9325 15.0675C17.9325 14.1875 17.5425 13.3962 16.9288 12.8562C16.7113 12.6675 16.4688 12.5087 16.2038 12.3888C15.8325 12.22 15.4225 12.1263 14.99 12.1263C14.5562 12.1263 14.1462 12.22 13.7762 12.3888C13.5125 12.5087 13.2688 12.6675 13.0538 12.8562C12.4387 13.3962 12.0475 14.1862 12.0475 15.0675C12.0487 16.69 13.3687 18.01 14.99 18.01ZM15 12.8937C16.2013 12.8937 17.1725 13.8663 17.1725 15.0675C17.1725 16.2687 16.2013 17.2425 15 17.2425C13.7987 17.2425 12.8275 16.2687 12.8275 15.0675C12.8275 13.8675 13.7987 12.8937 15 12.8937ZM18.2638 13.125H22.5V19.5487C22.5 21.1787 21.1775 22.5 19.5487 22.5H10.4912C8.86 22.5 7.5 21.1787 7.5 19.5487V13.125H11.7163C11.3775 13.6962 11.1713 14.3562 11.1713 15.0675C11.1713 17.1775 12.88 18.8862 14.99 18.8862C17.0987 18.8862 18.8088 17.1763 18.8088 15.0675C18.8088 14.3562 18.6038 13.6962 18.2638 13.125ZM19.5487 7.5H11.875V10.625H11.25V7.5H10.625V10.625H10V7.54875C9.7825 7.58375 9.57375 7.6375 9.375 7.71625V10.625H8.75V8.06125C7.9975 8.59625 7.5 9.465 7.5 10.4513V12.5H12.17C12.9 11.6975 13.9187 11.25 14.99 11.25C16.065 11.25 17.0837 11.7025 17.8088 12.5H22.5V10.45C22.5 8.82125 21.1775 7.5 19.5487 7.5ZM21.25 10.79C21.25 11.0437 21.0425 11.25 20.7838 11.25H19.215C18.9587 11.25 18.75 11.0437 18.75 10.79V9.20875C18.75 8.95625 18.9587 8.75 19.215 8.75H20.7838C21.0425 8.75 21.25 8.95625 21.25 9.20875V10.79Z" fill="#009EE2"/>
</svg>
