<svg width="36" height="35" viewBox="0 0 36 35" fill="none" xmlns="http://www.w3.org/2000/svg">
<circle cx="17.8" cy="17.5" r="15.9" stroke="black" stroke-width="3.2"/>
<g clip-path="url(#clip0)">
<path d="M17.7998 20.5702C19.4954 20.5702 20.87 19.1956 20.87 17.5C20.87 15.8044 19.4954 14.4298 17.7998 14.4298C16.1042 14.4298 14.7296 15.8044 14.7296 17.5C14.7296 19.1956 16.1042 20.5702 17.7998 20.5702Z" stroke="black" stroke-width="2" stroke-linecap="round" stroke-linejoin="round"/>
<path d="M20.87 14.4298V18.2676C20.87 18.8783 21.1126 19.4639 21.5444 19.8958C21.9763 20.3276 22.5619 20.5702 23.1726 20.5702C23.7833 20.5702 24.369 20.3276 24.8009 19.8958C25.2327 19.4639 25.4753 18.8783 25.4753 18.2676V17.5C25.4752 15.7677 24.889 14.0864 23.8122 12.7294C22.7354 11.3724 21.2312 10.4196 19.5442 10.0259C17.8572 9.63221 16.0866 9.82078 14.5204 10.5609C12.9541 11.3011 11.6844 12.5493 10.9175 14.1027C10.1506 15.656 9.93172 17.4231 10.2965 19.1166C10.6612 20.81 11.5881 22.3304 12.9264 23.4303C14.2647 24.5302 15.9358 25.145 17.6679 25.1748C19.3999 25.2046 21.0911 24.6476 22.4665 23.5943" stroke="black" stroke-width="2" stroke-linecap="round" stroke-linejoin="round"/>
</g>
<defs>
<clipPath id="clip0">
<rect width="18.4211" height="18.4211" fill="white" transform="translate(8.58911 8.28949)"/>
</clipPath>
</defs>
</svg>
