<svg width="40" height="40" viewBox="0 0 40 40" fill="none" xmlns="http://www.w3.org/2000/svg">
<g clip-path="url(#clip0)">
<path d="M20 40C31.0457 40 40 31.0457 40 20C40 8.9543 31.0457 0 20 0C8.9543 0 0 8.9543 0 20C0 31.0457 8.9543 40 20 40Z" fill="#F99400"/>
<path fill-rule="evenodd" clip-rule="evenodd" d="M18.1008 24.1141C17.3795 23.9465 16.7071 23.7043 16.068 23.3754C15.8391 23.2572 15.6137 23.1305 15.3951 22.9945C14.7502 22.5919 14.5497 21.7612 14.9373 21.1221C15.336 20.4656 16.1622 20.2523 16.8217 20.6523C17.4706 21.0447 18.1582 21.3301 18.9053 21.4647C20.3755 21.7287 21.7568 21.4856 23.044 20.7287C23.3066 20.5741 23.572 20.4527 23.8853 20.4545C24.4928 20.4581 25.0248 20.847 25.2013 21.4252C25.3786 22.0079 25.1577 22.6385 24.6417 22.9705C23.8377 23.4879 22.9671 23.8523 22.04 24.0807C22 24.0901 21.9608 24.1016 21.9048 24.1163C21.9426 24.1572 21.972 24.1892 22.0031 24.2203C22.8271 25.0443 23.6515 25.867 24.4746 26.6923C24.956 27.175 25.0573 27.8372 24.7377 28.3892C24.2777 29.1843 23.22 29.3163 22.5573 28.6576C21.736 27.8407 20.9191 27.0203 20.1008 26.2021C20.0715 26.1727 20.044 26.1412 19.9786 26.0701C19.9515 26.1185 19.9368 26.1656 19.9066 26.1959C19.0866 27.019 18.2666 27.8407 17.4431 28.6603C16.8782 29.2239 16.0155 29.2203 15.4688 28.6585C14.9688 28.1447 14.9546 27.3287 15.4382 26.7896C15.5035 26.7159 15.5746 26.6465 15.644 26.5767C16.4306 25.7896 17.2168 25.0039 18.0035 24.2163C18.0306 24.1887 18.0586 24.1581 18.1008 24.1141Z" fill="white"/>
<path fill-rule="evenodd" clip-rule="evenodd" d="M20.0029 10.918C22.5829 10.918 24.6878 13.0237 24.6873 15.6037C24.6869 18.1869 22.602 20.2895 20.0047 20.2904C17.3927 20.2931 15.3185 18.1873 15.3145 15.6126C15.31 13.0291 17.4002 10.9251 20.0029 10.918ZM21.9393 15.6082C21.9402 14.5406 21.0767 13.67 20.0145 13.6673C18.938 13.6646 18.0611 14.5277 18.0593 15.5909C18.0576 16.6557 18.9211 17.5424 19.9633 17.5433C21.0678 17.5442 21.9385 16.6917 21.9393 15.6082Z" fill="white"/>
</g>
<defs>
<clipPath id="clip0">
<rect width="40" height="40" fill="white"/>
</clipPath>
</defs>
</svg>
