<svg width="40" height="40" viewBox="0 0 40 40" fill="none" xmlns="http://www.w3.org/2000/svg">
<path d="M20 40C31.0457 40 40 31.0457 40 20C40 8.9543 31.0457 0 20 0C8.9543 0 0 8.9543 0 20C0 31.0457 8.9543 40 20 40Z" fill="#139BD0"/>
<path fill-rule="evenodd" clip-rule="evenodd" d="M20.6554 24.7795C19.8852 25.5297 19.1216 26.2675 18.3652 27.011C18.1007 27.2715 17.8034 27.4155 17.4238 27.3955C17.1647 27.3817 17.0198 27.2679 16.9403 27.0221C16.3607 25.2235 15.7727 23.4293 15.1963 21.6288C15.1403 21.4541 15.0576 21.3693 14.8807 21.3146C13.5154 20.8977 12.1527 20.471 10.7923 20.0386C10.583 19.9719 10.3718 19.8848 10.191 19.7617C9.9114 19.5724 9.87051 19.2635 10.1212 19.0413C10.3527 18.8364 10.6292 18.6577 10.9163 18.5439C12.5852 17.8826 14.263 17.2426 15.9381 16.5968C20.1892 14.9555 24.4403 13.3155 28.6918 11.6741C29.5003 11.3617 30.1216 11.8017 30.0376 12.6759C29.9838 13.235 29.839 13.7853 29.7221 14.3373C28.799 18.6959 27.875 23.055 26.947 27.4128C26.7265 28.4475 25.9998 28.7177 25.1483 28.0897C23.7221 27.0386 22.2972 25.9839 20.8718 24.931C20.8038 24.8817 20.7332 24.8341 20.6554 24.7795ZM17.4541 26.103C17.4701 26.0986 17.4861 26.0941 17.5021 26.0901C17.511 26.0493 17.5238 26.0093 17.5274 25.9688C17.619 24.9808 17.7158 23.9933 17.7954 23.0035C17.8132 22.783 17.8887 22.6266 18.0545 22.4781C19.3692 21.3026 20.6758 20.1195 21.9852 18.939C23.4345 17.6319 24.8843 16.3261 26.3283 15.0137C26.4176 14.9328 26.455 14.795 26.5163 14.683C26.3803 14.6684 26.2345 14.6137 26.111 14.6457C25.9425 14.6893 25.783 14.787 25.6327 14.8817C22.4341 16.8964 19.2381 18.9146 16.0372 20.9253C15.8563 21.039 15.8225 21.1355 15.8914 21.3341C16.1274 22.0119 16.3421 22.6959 16.5647 23.3786C16.8612 24.287 17.1576 25.195 17.4541 26.103Z" fill="white"/>
</svg>
