<svg width="36" height="35" viewBox="0 0 36 35" fill="none" xmlns="http://www.w3.org/2000/svg">
<g clip-path="url(#clip0)">
<path d="M18.475 2.91667C26.5162 2.91667 33.0583 9.45875 33.0583 17.5C33.0583 25.5413 26.5162 32.0833 18.475 32.0833C10.4337 32.0833 3.89164 25.5413 3.89164 17.5C3.89164 9.45875 10.4337 2.91667 18.475 2.91667ZM18.475 0C8.8106 0 0.974976 7.83563 0.974976 17.5C0.974976 27.1644 8.8106 35 18.475 35C28.1394 35 35.975 27.1644 35.975 17.5C35.975 7.83563 28.1394 0 18.475 0ZM27.9541 12.8013C27.311 13.0871 26.6183 13.2796 25.8921 13.3671C26.6344 12.9223 27.2016 12.2194 27.4714 11.3808C26.7773 11.7921 26.0087 12.091 25.1906 12.2515C24.5373 11.5529 23.6025 11.1169 22.5714 11.1169C20.2527 11.1169 18.5494 13.2796 19.0729 15.5254C16.0906 15.3752 13.4437 13.946 11.6733 11.7746C10.7327 13.3875 11.1862 15.4992 12.7846 16.5681C12.1968 16.5492 11.6441 16.3873 11.16 16.119C11.1206 17.7815 12.3135 19.3375 14.0402 19.6846C13.5356 19.8217 12.9814 19.8538 12.4185 19.7458C12.875 21.1721 14.2035 22.209 15.7727 22.2381C14.2604 23.4223 12.3602 23.9517 10.4541 23.7271C12.0437 24.7465 13.9294 25.34 15.9564 25.34C22.6239 25.34 26.3894 19.7094 26.1619 14.6592C26.8648 14.1546 27.4729 13.5217 27.9541 12.8013Z" fill="black"/>
</g>
<defs>
<clipPath id="clip0">
<rect width="35" height="35" fill="white" transform="translate(0.974976)"/>
</clipPath>
</defs>
</svg>
