<svg width="30" height="30" viewBox="0 0 30 30" fill="none" xmlns="http://www.w3.org/2000/svg">
<path d="M15 2.5C21.8925 2.5 27.5 8.1075 27.5 15C27.5 21.8925 21.8925 27.5 15 27.5C8.1075 27.5 2.5 21.8925 2.5 15C2.5 8.1075 8.1075 2.5 15 2.5ZM15 0C6.71625 0 0 6.71625 0 15C0 23.2838 6.71625 30 15 30C23.2838 30 30 23.2838 30 15C30 6.71625 23.2838 0 15 0ZM23.125 10.9725C22.5737 11.2175 21.98 11.3825 21.3575 11.4575C21.9937 11.0763 22.48 10.4738 22.7113 9.755C22.1163 10.1075 21.4575 10.3638 20.7562 10.5013C20.1962 9.9025 19.395 9.52875 18.5112 9.52875C16.5238 9.52875 15.0638 11.3825 15.5125 13.3075C12.9562 13.1788 10.6875 11.9538 9.17 10.0925C8.36375 11.475 8.7525 13.285 10.1225 14.2013C9.61875 14.185 9.145 14.0463 8.73 13.8163C8.69625 15.2413 9.71875 16.575 11.1987 16.8725C10.7662 16.99 10.2913 17.0175 9.80875 16.925C10.2 18.1475 11.3388 19.0362 12.6838 19.0612C11.3875 20.0763 9.75875 20.53 8.125 20.3375C9.4875 21.2113 11.1037 21.72 12.8412 21.72C18.5562 21.72 21.7838 16.8937 21.5887 12.565C22.1912 12.1325 22.7125 11.59 23.125 10.9725Z" fill="#009EE2"/>
</svg>
