<svg width="40" height="40" viewBox="0 0 40 40" fill="none" xmlns="http://www.w3.org/2000/svg">
<g clip-path="url(#clip0)">
<path d="M20.0008 39.9996C31.0464 39.9996 40.0006 31.0454 40.0006 19.9998C40.0006 8.95423 31.0464 0 20.0008 0C8.9552 0 0.000976562 8.95423 0.000976562 19.9998C0.000976562 31.0454 8.9552 39.9996 20.0008 39.9996Z" fill="#55ACEE"/>
<path d="M32.2517 14.3732C31.3946 14.7533 30.4726 15.0103 29.5058 15.1251C30.493 14.5337 31.2506 13.5978 31.6081 12.4809C30.6844 13.0288 29.6609 13.4263 28.5724 13.6406C27.7004 12.7119 26.4579 12.1315 25.0821 12.1315C22.4425 12.1315 20.3016 14.2723 20.3016 16.912C20.3016 17.2867 20.344 17.6514 20.426 18.0015C16.453 17.8022 12.9303 15.8991 10.5723 13.006C10.1609 13.7119 9.92486 14.5337 9.92486 15.4096C9.92486 17.0678 10.7694 18.5316 12.0515 19.3887C11.2682 19.3641 10.5306 19.1491 9.88635 18.7901C9.886 18.8104 9.886 18.8308 9.886 18.8507C9.886 21.167 11.5345 23.099 13.721 23.5378C13.3203 23.6476 12.8971 23.7058 12.4618 23.7058C12.1531 23.7058 11.854 23.6762 11.5623 23.6205C12.1706 25.5194 13.9357 26.9016 16.0281 26.9404C14.3916 28.2228 12.3306 28.9868 10.0903 28.9868C9.70524 28.9868 9.32377 28.9644 8.9505 28.9198C11.065 30.2767 13.5784 31.0678 16.278 31.0678C25.0711 31.0678 29.8798 23.7835 29.8798 17.4657C29.8798 17.2585 29.8751 17.0521 29.8659 16.8475C30.8006 16.1736 31.611 15.3319 32.2517 14.3732Z" fill="#F1F2F2"/>
</g>
<defs>
<clipPath id="clip0">
<rect width="40" height="40" fill="white"/>
</clipPath>
</defs>
</svg>
