<svg width="36" height="35" viewBox="0 0 36 35" fill="none" xmlns="http://www.w3.org/2000/svg">
<g clip-path="url(#clip0)">
<path d="M17.825 2.91667C25.8663 2.91667 32.4083 9.45875 32.4083 17.5C32.4083 25.5413 25.8663 32.0833 17.825 32.0833C9.78376 32.0833 3.24168 25.5413 3.24168 17.5C3.24168 9.45875 9.78376 2.91667 17.825 2.91667ZM17.825 0C8.16064 0 0.325012 7.83563 0.325012 17.5C0.325012 27.1644 8.16064 35 17.825 35C27.4894 35 35.325 27.1644 35.325 17.5C35.325 7.83563 27.4894 0 17.825 0ZM18.6723 23.329C19.1156 23.329 19.2979 23.0315 19.2921 22.661C19.2688 21.264 19.8113 20.5115 20.7942 21.4915C21.8792 22.5765 22.1008 23.329 23.4206 23.329H25.7554C26.3431 23.329 26.575 23.1394 26.575 22.8419C26.575 22.2119 25.5381 21.1006 24.6617 20.2869C23.4308 19.145 23.3754 19.1173 24.4342 17.7435C25.7467 16.0387 27.4661 13.8542 25.9465 13.8542H23.0429C22.4786 13.8542 22.4392 14.1706 22.2394 14.6446C21.5131 16.3552 20.135 18.5719 19.61 18.2335C19.0602 17.8792 19.3125 16.4792 19.3548 14.3981C19.3665 13.8483 19.3636 13.4706 18.5221 13.2752C18.0642 13.1687 17.6165 13.125 17.2052 13.125C15.5471 13.125 14.4023 13.8206 15.0513 13.9417C16.1961 14.1546 16.0881 16.6338 15.8198 17.7042C15.3546 19.5679 13.6061 16.2283 12.8769 14.5658C12.7019 14.1648 12.6508 13.8542 12.0223 13.8542H9.6496C9.28939 13.8542 9.07501 13.9708 9.07501 14.2304C9.07501 14.6694 11.2319 19.1304 13.2925 21.3544C15.3036 23.5229 17.2913 23.329 18.6723 23.329Z" fill="black"/>
</g>
<defs>
<clipPath id="clip0">
<rect width="35" height="35" fill="white" transform="translate(0.325012)"/>
</clipPath>
</defs>
</svg>
