<svg width="30" height="30" viewBox="0 0 30 30" fill="none" xmlns="http://www.w3.org/2000/svg">
<path d="M15 2.5C21.8925 2.5 27.5 8.1075 27.5 15C27.5 21.8925 21.8925 27.5 15 27.5C8.1075 27.5 2.5 21.8925 2.5 15C2.5 8.1075 8.1075 2.5 15 2.5ZM15 0C6.71625 0 0 6.71625 0 15C0 23.2838 6.71625 30 15 30C23.2838 30 30 23.2838 30 15C30 6.71625 23.2838 0 15 0ZM15.7263 19.9963C16.1063 19.9963 16.2625 19.7412 16.2575 19.4237C16.2375 18.2262 16.7025 17.5813 17.545 18.4213C18.475 19.3512 18.665 19.9963 19.7962 19.9963H21.7975C22.3013 19.9963 22.5 19.8337 22.5 19.5788C22.5 19.0387 21.6112 18.0863 20.86 17.3888C19.805 16.41 19.7575 16.3862 20.665 15.2087C21.79 13.7475 23.2638 11.875 21.9613 11.875H19.4725C18.9888 11.875 18.955 12.1462 18.7838 12.5525C18.1613 14.0188 16.98 15.9188 16.53 15.6287C16.0588 15.325 16.275 14.125 16.3112 12.3413C16.3212 11.87 16.3188 11.5462 15.5975 11.3787C15.205 11.2875 14.8212 11.25 14.4688 11.25C13.0475 11.25 12.0662 11.8463 12.6225 11.95C13.6037 12.1325 13.5112 14.2575 13.2812 15.175C12.8825 16.7725 11.3838 13.91 10.7588 12.485C10.6088 12.1412 10.565 11.875 10.0262 11.875H7.9925C7.68375 11.875 7.5 11.975 7.5 12.1975C7.5 12.5738 9.34875 16.3975 11.115 18.3037C12.8387 20.1625 14.5425 19.9963 15.7263 19.9963Z" fill="#009EE2"/>
</svg>
