<svg width="30" height="30" viewBox="0 0 30 30" fill="none" xmlns="http://www.w3.org/2000/svg">
<circle cx="15" cy="15" r="13.75" stroke="#2A98CE" stroke-width="2.5"/>
<g clip-path="url(#clip0)">
<path fill-rule="evenodd" clip-rule="evenodd" d="M14.9132 7.10533C11.6591 7.10564 9.40425 7.11647 8.24682 8.24673C7.11662 9.4039 7.10579 11.7646 7.10579 14.9129C10.6016 14.8074 12.2002 14.7199 13.4752 13.4749C14.7202 12.1999 14.8078 10.6013 14.9132 7.10533ZM8.24662 21.7535C7.11642 20.5964 7.10559 18.2356 7.10559 15.0873C10.6014 15.1928 12.2 15.2804 13.475 16.5254C14.72 17.8004 14.8076 19.399 14.913 22.8946C11.6589 22.8946 9.40405 22.8841 8.24662 21.7535ZM15.0876 22.8946C15.193 19.399 15.2806 17.8004 16.5256 16.5254C17.8006 15.2804 19.3992 15.1928 22.895 15.0873C22.8947 18.2356 22.8839 20.5964 21.7537 21.7535C20.5962 22.8841 18.3417 22.8946 15.0876 22.8946ZM15.0876 7.10533C15.193 10.6013 15.2806 12.1999 16.5256 13.4749C17.8006 14.7199 19.3992 14.8074 22.895 14.9129C22.8947 11.7646 22.8839 9.4039 21.7537 8.24673C20.5962 7.11647 18.3417 7.10564 15.0876 7.10533Z" fill="#009EE2"/>
<path fill-rule="evenodd" clip-rule="evenodd" d="M16.5256 16.5254C15.2806 17.8004 15.193 19.399 15.0876 22.8946C18.3417 22.8946 20.5962 22.8841 21.7537 21.7535C22.8839 20.5964 22.8947 18.2356 22.895 15.0873C19.3992 15.1928 17.8006 15.2804 16.5256 16.5254ZM7.10559 15.0873C7.10559 18.2356 7.11642 20.5964 8.24662 21.7535C9.40405 22.8841 11.6589 22.8946 14.913 22.8946C14.8076 19.399 14.72 17.8004 13.475 16.5254C12.2 15.2804 10.6014 15.1928 7.10559 15.0873ZM14.9132 7.10533C11.6591 7.10564 9.40425 7.11647 8.24682 8.24673C7.11662 9.4039 7.10579 11.7646 7.10579 14.9129C10.6016 14.8074 12.2002 14.7199 13.4752 13.4749C14.7202 12.1999 14.8078 10.6013 14.9132 7.10533ZM16.5256 13.4749C15.2806 12.1999 15.193 10.6013 15.0876 7.10533C18.3417 7.10564 20.5962 7.11647 21.7537 8.24673C22.8839 9.4039 22.8947 11.7646 22.895 14.9129C19.3992 14.8074 17.8006 14.7199 16.5256 13.4749Z" fill="url(#paint0_linear)"/>
<path fill-rule="evenodd" clip-rule="evenodd" d="M22.8949 15.0881V15.0008V14.9139C19.3991 14.8081 17.8005 14.7209 16.5255 13.4756C15.2805 12.2008 15.1929 10.6023 15.0874 7.10631H15.0002H14.9129C14.8074 10.6023 14.7199 12.2008 13.4749 13.4756C12.1999 14.7209 10.6013 14.8081 7.10547 14.9139V15.0008V15.0881C10.6013 15.1938 12.1999 15.2811 13.4749 16.5261C14.7199 17.8011 14.8074 19.3997 14.9129 22.8956H15.0002H15.0874C15.1929 19.3997 15.2805 17.8011 16.5255 16.5261C17.8005 15.2811 19.3991 15.1938 22.8949 15.0881Z" fill="white"/>
</g>
<defs>
<linearGradient id="paint0_linear" x1="22.895" y1="22.8946" x2="22.895" y2="7.10533" gradientUnits="userSpaceOnUse">
<stop stop-color="white" stop-opacity="0.01"/>
<stop offset="0.47509" stop-color="white" stop-opacity="0.01"/>
<stop offset="0.76042" stop-color="white" stop-opacity="0.04271"/>
<stop offset="0.99531" stop-color="white" stop-opacity="0.09855"/>
<stop offset="1" stop-color="white" stop-opacity="0.1"/>
</linearGradient>
<clipPath id="clip0">
<rect width="15.7895" height="15.7895" fill="white" transform="translate(7.10547 7.10533)"/>
</clipPath>
</defs>
</svg>
