<svg width="35" height="35" viewBox="0 0 35 35" fill="none" xmlns="http://www.w3.org/2000/svg">
<circle cx="17.5" cy="17.5" r="16.5" stroke="black" stroke-width="2"/>
<g clip-path="url(#clip0)">
<path fill-rule="evenodd" clip-rule="evenodd" d="M17.3976 8.28967C13.6011 8.29003 10.9705 8.30266 9.62013 9.6213C8.30157 10.9713 8.28893 13.7255 8.28893 17.3985C12.3674 17.2755 14.2324 17.1733 15.7199 15.7208C17.1724 14.2333 17.2746 12.3683 17.3976 8.28967ZM9.6199 25.3792C8.30133 24.0292 8.2887 21.275 8.2887 17.602C12.3671 17.7251 14.2322 17.8272 15.7197 19.2797C17.1722 20.7673 17.2743 22.6323 17.3974 26.7105C13.6009 26.7105 10.9702 26.6983 9.6199 25.3792ZM17.601 26.7105C17.7241 22.6323 17.8262 20.7673 19.2787 19.2797C20.7662 17.8272 22.6312 17.7251 26.7097 17.602C26.7093 21.275 26.6967 24.0292 25.3781 25.3792C24.0278 26.6983 21.3975 26.7105 17.601 26.7105ZM17.601 8.28967C17.7241 12.3683 17.8262 14.2333 19.2787 15.7208C20.7662 17.1733 22.6312 17.2755 26.7097 17.3985C26.7093 13.7255 26.6967 10.9713 25.3781 9.6213C24.0278 8.30266 21.3975 8.29003 17.601 8.28967Z" fill="black"/>
<path fill-rule="evenodd" clip-rule="evenodd" d="M19.2787 19.2797C17.8262 20.7673 17.7241 22.6323 17.601 26.7105C21.3975 26.7105 24.0278 26.6983 25.3781 25.3792C26.6967 24.0292 26.7093 21.275 26.7097 17.602C22.6313 17.7251 20.7662 17.8272 19.2787 19.2797ZM8.2887 17.602C8.2887 21.275 8.30133 24.0292 9.6199 25.3792C10.9702 26.6983 13.6009 26.7105 17.3974 26.7105C17.2743 22.6323 17.1722 20.7673 15.7197 19.2797C14.2322 17.8272 12.3671 17.7251 8.2887 17.602ZM17.3976 8.28967C13.6011 8.29003 10.9705 8.30266 9.62013 9.6213C8.30157 10.9713 8.28893 13.7255 8.28893 17.3985C12.3674 17.2755 14.2324 17.1733 15.7199 15.7208C17.1724 14.2333 17.2746 12.3683 17.3976 8.28967ZM19.2787 15.7208C17.8262 14.2333 17.7241 12.3683 17.601 8.28967C21.3975 8.29003 24.0278 8.30266 25.3781 9.6213C26.6967 10.9713 26.7093 13.7255 26.7097 17.3985C22.6313 17.2755 20.7662 17.1733 19.2787 15.7208Z" fill="url(#paint0_linear)"/>
<path fill-rule="evenodd" clip-rule="evenodd" d="M26.7096 17.6027V17.5009V17.3995C22.6311 17.2761 20.7661 17.1743 19.2786 15.7214C17.8261 14.2342 17.724 12.3693 17.6009 8.29065H17.4991H17.3973C17.2742 12.3693 17.172 14.2342 15.7195 15.7214C14.232 17.1743 12.367 17.2761 8.28857 17.3995V17.5009V17.6027C12.367 17.7261 14.232 17.8279 15.7195 19.2804C17.172 20.7679 17.2742 22.6329 17.3973 26.7115H17.4991H17.6009C17.724 22.6329 17.8261 20.7679 19.2786 19.2804C20.7661 17.8279 22.6311 17.7261 26.7096 17.6027Z" fill="white"/>
</g>
<defs>
<linearGradient id="paint0_linear" x1="26.7097" y1="26.7105" x2="26.7097" y2="8.28967" gradientUnits="userSpaceOnUse">
<stop stop-color="white" stop-opacity="0.01"/>
<stop offset="0.47509" stop-color="white" stop-opacity="0.01"/>
<stop offset="0.76042" stop-color="white" stop-opacity="0.04271"/>
<stop offset="0.99531" stop-color="white" stop-opacity="0.09855"/>
<stop offset="1" stop-color="white" stop-opacity="0.1"/>
</linearGradient>
<clipPath id="clip0">
<rect width="18.4211" height="18.4211" fill="white" transform="translate(8.28857 8.28967)"/>
</clipPath>
</defs>
</svg>
