<svg width="13" height="13" fill="none" xmlns="http://www.w3.org/2000/svg"><path d="M12.085 4.642a.724.724 0 00.729-.718v-.93a.715.715 0 00-.457-.666L6.892.127a.736.736 0 00-.544-.001L.881 2.328a.715.715 0 00-.457.666v.93c0 .396.327.718.73.718h.436v5.408h-.437a.724.724 0 00-.729.718v.838c0 .396.327.718.73.718h10.931a.724.724 0 00.729-.718v-.838a.724.724 0 00-.729-.718h-.437V4.642h.437zm0 6.126c0 .857.002.838 0 .838H1.153v-.838h10.932zM2.32 10.05V4.642h.826v5.408H2.32zm1.555 0V4.642h1.603v5.408H3.874zm2.332 0V4.642h.826v5.408h-.826zm1.555 0V4.642h1.603v5.408H7.761zm2.332 0V4.642h.826v5.408h-.826zm-8.94-6.126c0-1.002 0-.93.003-.931L6.62.793l5.463 2.2c.004.001.003-.068.003.93H1.153z" fill="#8A8A8A"/></svg>