<svg width="24" height="24" fill="none" xmlns="http://www.w3.org/2000/svg"><path d="M19 4H5a2 2 0 00-2 2v14a2 2 0 002 2h14a2 2 0 002-2V6a2 2 0 00-2-2zm-3-2v4M8 2v4m-5 4h18" stroke="#000" stroke-width=".667" stroke-linecap="round" stroke-linejoin="round"/><path stroke="#000" stroke-width=".5" d="M4.8 12.55h1.6m1.6 0h1.6m1.6 0h1.6m1.6 0H16m-4.8 0h1.6m4.8 0h1.6m-14.4 3.2h1.6m1.6 0h1.6m4.8 0H16m-4.8 0h1.6m4.8 0h1.6m-14.4 1.6h1.6m-1.6 1.6h1.6m1.6-1.6h1.6M8 18.95h1.6m4.8-1.6H16m-4.8 0h1.6m4.8 0h1.6m-14.4-3.2h1.6m1.6 0h1.6m4.8 0H16m-4.8 0h1.6m4.8 0h1.6"/></svg>