<svg width="20" height="20" fill="none" xmlns="http://www.w3.org/2000/svg"><path d="M15.833 3.333H4.167C3.247 3.333 2.5 4.08 2.5 5v11.667c0 .92.746 1.666 1.667 1.666h11.666c.92 0 1.667-.746 1.667-1.666V5c0-.92-.746-1.667-1.667-1.667zm-2.501-1.666V5M6.668 1.667V5M2.5 8.333h15" stroke="#000" stroke-width=".667" stroke-linecap="round" stroke-linejoin="round"/><path stroke="#000" stroke-width=".5" d="M4 10.417h1.333m1.335 0h1.333m1.331 0h1.333m1.335 0h1.333m-4.001 0h1.333m4.003 0h1.333M4 13.083h1.333m1.335 0h1.333m3.999 0h1.333m-4.001 0h1.333m4.003 0h1.333M4 14.417h1.333M4 15.75h1.333m1.335-1.333h1.333M6.668 15.75h1.333M12 14.417h1.333m-4.001 0h1.333m4.003 0h1.333M4 11.75h1.333m1.335 0h1.333m3.999 0h1.333m-4.001 0h1.333m4.003 0h1.333"/></svg>