<svg width="15" height="15" fill="none" xmlns="http://www.w3.org/2000/svg"><path d="M11.875 2.5h-8.75c-.69 0-1.25.56-1.25 1.25v8.75c0 .69.56 1.25 1.25 1.25h8.75c.69 0 1.25-.56 1.25-1.25V3.75c0-.69-.56-1.25-1.25-1.25zM10 1.25v2.5m-5-2.5v2.5m-3.125 2.5h11.25" stroke="#fff" stroke-width=".667" stroke-linecap="round" stroke-linejoin="round"/><path stroke="#fff" stroke-width=".5" d="M3 7.75h1m1 0h1m1 0h1m1 0h1m-3 0h1m3 0h1m-9 2h1m1 0h1m3 0h1m-3 0h1m3 0h1m-9 1h1m-1 1h1m1-1h1m-1 1h1m3-1h1m-3 0h1m3 0h1m-9-2h1m1 0h1m3 0h1m-3 0h1m3 0h1"/></svg>