<svg width="13" height="13" fill="none" xmlns="http://www.w3.org/2000/svg"><path d="M11.53 4.507c.397 0 .72-.317.72-.708V2.88a.705.705 0 00-.452-.657L6.395.052A.729.729 0 005.857.05L.452 2.224A.705.705 0 000 2.881V3.8c0 .39.323.708.72.708h.433v5.338H.72a.715.715 0 00-.721.708v.827c0 .39.323.708.72.708h10.81c.397 0 .72-.317.72-.708v-.827a.715.715 0 00-.72-.708h-.433V4.507h.432zm0 6.046c0 .846.002.827 0 .827H.72v-.827h10.81zm-9.656-.708V4.507h.816v5.338h-.816zm1.537 0V4.507h1.585v5.338H3.411zm2.306 0V4.507h.816v5.338h-.816zm1.537 0V4.507h1.585v5.338H7.254zm2.306 0V4.507h.816v5.338H9.56zM.72 3.799c0-.988 0-.917.003-.919L6.125.71l5.402 2.171c.004.002.002-.067.002.919H.721z" fill="#8A8A8A"/></svg>