<svg width="24" height="23" fill="none" xmlns="http://www.w3.org/2000/svg"><path d="M23.423 11.646a.366.366 0 00-.479-.16l-2.538 1.182-1.729.718a52.055 52.055 0 01-1.561-.411l-.3-.107a.369.369 0 00-.134-.021 6.21 6.21 0 01-.521-.18c-.597-.252-1.662-.844-2.092-1.201-.485-.402-1.75-1.894-1.762-1.91a.37.37 0 00-.444-.088c-.348.174-1.476.632-2.073.465-.315-.09-.899-.396-1.064-.587-.11-.127-.203-.585-.154-.731.129-.063.618.017.857.055.41.067.797.13 1.096.037.583-.18 1.758-1.143 2.04-1.38.282-.097 1.668-.545 2.635-.177a4.04 4.04 0 001.449.262c.957 0 1.662-.315 1.715-.34l3.524-1.804a.337.337 0 00.147-.465.367.367 0 00-.485-.141l-3.51 1.797c-.012.005-1.26.554-2.575.052-1.147-.437-2.633-.002-3.084.15-.5-.182-1.906-.664-2.53-.573-.584.085-2.282.162-2.97.04-.29-.078-2.495-1.222-4.423-2.258a.367.367 0 00-.488.132.336.336 0 00.137.468c1.26.678 4.236 2.261 4.632 2.332.841.15 2.65.049 3.22-.035.28-.04 1.046.161 1.716.38-.5.393-1.099.82-1.371.905-.133.041-.478-.015-.756-.06-.569-.092-1.156-.188-1.5.147-.385.378-.155 1.323.125 1.645.288.334 1.016.696 1.413.808.773.216 1.842-.176 2.342-.392.378.44 1.25 1.438 1.67 1.785.523.435 1.695 1.066 2.272 1.31.225.095.605.213 1.011.33l1.682.6a.416.416 0 01.199.242.905.905 0 01-.038.675.626.626 0 01-.644.332.373.373 0 00-.166-.046l-2.28-1.134a.366.366 0 00-.485.147.337.337 0 00.154.464l2.297 1.142.021.008a.406.406 0 01-.024.227 1.093 1.093 0 00-.049.19.63.63 0 01-.784.263l-1.925-.801c-.009-.004-.018-.005-.027-.008l-.034-.011c-.012-.003-.024-.004-.035-.005-.012-.002-.023-.004-.034-.004l-.036.001-.033.003a.335.335 0 00-.035.008l-.032.009c-.01.003-.02.008-.031.013l-.03.015-.029.019a.372.372 0 00-.027.02l-.024.024c-.008.01-.016.017-.023.027l-.02.028c-.004.008-.01.015-.014.024-.002.002-.002.005-.003.008l-.005.007-.007.024a.145.145 0 00-.012.035c-.003.01-.004.021-.005.032a.197.197 0 00-.004.034l.001.033.003.033.008.033.009.031a.347.347 0 00.03.06c.005.009.013.018.02.027a.29.29 0 00.02.026l.027.023a.188.188 0 00.026.022l.031.019c.008.004.015.01.023.013l.513.244a.577.577 0 01.29.781.626.626 0 01-.816.282l-1.442-.653.411-.669c.396-.641.173-1.473-.496-1.854a1.468 1.468 0 00-.956-.17 1.595 1.595 0 00-.803-1.56l-.002-.001a1.752 1.752 0 00-1.794.058 1.367 1.367 0 00-.62-.736c-.674-.38-1.545-.166-1.94.476l-.962 1.56-2.354-1.614-.027-.014-.025-.015L.97 11.488a.366.366 0 00-.479.159.338.338 0 00.166.46l2.518 1.171 2.414 1.656a1.335 1.335 0 00.636 1.563 1.458 1.458 0 00.952.166 1.6 1.6 0 00.809 1.573 1.7 1.7 0 001.285.161c.183-.048.353-.125.507-.224.106.296.317.56.62.732.225.127.472.187.716.187a1.43 1.43 0 001.221-.664l.382-.621 1.502.68a1.367 1.367 0 001.014.048c.336-.114.605-.348.758-.659.106-.214.142-.442.12-.662l.37.154c.17.07.348.103.522.103.516 0 1.009-.288 1.228-.77a.321.321 0 00.03-.136c0-.012.013-.05.022-.077.026-.082.062-.19.066-.331.43-.058.825-.316 1.025-.72.18-.366.205-.826.065-1.201a1.186 1.186 0 00-.195-.335l1.455-.604.007-.004.007-.002 2.545-1.185a.338.338 0 00.165-.46zM6.59 15.903a.655.655 0 01-.25-.915l1.16-1.883a.725.725 0 01.958-.234.654.654 0 01.247.914l-1.16 1.884a.716.716 0 01-.955.234zm2.492 1.83a.977.977 0 01-.732-.09.93.93 0 01-.326-1.304l1.503-2.435a1.015 1.015 0 011.346-.355c.457.26.6.844.319 1.3L9.69 17.282a1.01 1.01 0 01-.608.45zm2.636.344a.717.717 0 01-.955.235.655.655 0 01-.25-.917l1.16-1.883a.725.725 0 01.959-.233c.33.188.44.598.245.914l-.487.791a.353.353 0 00-.238.186.328.328 0 00-.02.235l-.414.672z" fill="#231F20"/></svg>