<svg width="24" height="23" fill="none" xmlns="http://www.w3.org/2000/svg"><path d="M21.304 2.159H8.647a.351.351 0 00-.358.344V7.46H2.612a.351.351 0 00-.358.343v9.645c0 .19.16.344.358.344h3.001l2.824 2.86a.366.366 0 00.393.084.345.345 0 00.226-.32l.002-2.624h6.828a.351.351 0 00.359-.344v-4.956h5.06a.351.351 0 00.358-.344V2.503c0-.19-.16-.344-.359-.344zm-5.777 14.945H8.7a.351.351 0 00-.358.344l-.002 2.105-2.31-2.341a.367.367 0 00-.261-.108H2.97V8.148h5.32v4c0 .19.16.344.358.344h2.541v2.412c0 .138.087.263.22.317a.37.37 0 00.39-.072l2.825-2.657h.904v4.612zm5.418-5.3h-6.468a.368.368 0 00-.252.099l-2.32 2.181v-1.936a.35.35 0 00-.358-.343H9.006V2.847h11.94v8.957z" fill="#231F20"/></svg>