<svg width="13" height="13" viewBox="0 0 13 13" fill="none" xmlns="http://www.w3.org/2000/svg">
<path d="M12.0851 4.64159C12.4869 4.64159 12.8138 4.31951 12.8138 3.92361V2.99398C12.8138 2.6992 12.6346 2.43793 12.3571 2.32791L6.89238 0.126602C6.71444 0.0559774 6.52187 0.0572219 6.34844 0.125597C6.34441 0.127201 6.4399 0.0887411 0.881115 2.32794C0.603617 2.43793 0.424408 2.69923 0.424408 2.994V3.92366C0.424408 4.31955 0.751343 4.64164 1.1532 4.64164H1.59047V10.0504H1.1532C0.751343 10.0504 0.424408 10.3725 0.424408 10.7684V11.606C0.424408 12.0019 0.751343 12.324 1.1532 12.324H12.085C12.4869 12.324 12.8138 12.0019 12.8138 11.606V10.7684C12.8138 10.3725 12.4869 10.0504 12.085 10.0504H11.6478V4.64164L12.0851 4.64159ZM12.0851 10.7683C12.0855 11.6251 12.0875 11.606 12.0851 11.606H1.15322V10.7683H12.0851ZM2.31928 10.0503V4.64159H3.14524V10.0503H2.31928ZM3.87403 10.0503V4.64159H5.47737V10.0503H3.87403ZM6.20616 10.0503V4.64159H7.03212V10.0503H6.20616ZM7.7609 10.0503V4.64159H9.36424V10.0503H7.7609ZM10.093 10.0503V4.64159H10.919V10.0503H10.093ZM1.15322 3.92361C1.15322 2.92221 1.15213 2.99441 1.15577 2.99295L6.61914 0.792189L12.0825 2.99295C12.0863 2.99444 12.0851 2.92458 12.0851 3.92361C11.9639 3.92361 1.29716 3.92361 1.15322 3.92361Z" fill="#8A8A8A"/>
</svg>
