<svg width="24" height="24" viewBox="0 0 24 24" fill="none" xmlns="http://www.w3.org/2000/svg">
<path d="M19 4H5C3.89543 4 3 4.89543 3 6V20C3 21.1046 3.89543 22 5 22H19C20.1046 22 21 21.1046 21 20V6C21 4.89543 20.1046 4 19 4Z" stroke="black" stroke-width="0.666667" stroke-linecap="round" stroke-linejoin="round"/>
<path d="M16.0001 2V6" stroke="black" stroke-width="0.666667" stroke-linecap="round" stroke-linejoin="round"/>
<path d="M7.99994 2V6" stroke="black" stroke-width="0.666667" stroke-linecap="round" stroke-linejoin="round"/>
<path d="M3 10H21" stroke="black" stroke-width="0.666667" stroke-linecap="round" stroke-linejoin="round"/>
<line x1="4.79999" y1="12.55" x2="6.39999" y2="12.55" stroke="black" stroke-width="0.5"/>
<line x1="8" y1="12.55" x2="9.6" y2="12.55" stroke="black" stroke-width="0.5"/>
<line x1="11.2" y1="12.55" x2="12.8" y2="12.55" stroke="black" stroke-width="0.5"/>
<line x1="14.4" y1="12.55" x2="16" y2="12.55" stroke="black" stroke-width="0.5"/>
<line x1="11.2" y1="12.55" x2="12.8" y2="12.55" stroke="black" stroke-width="0.5"/>
<line x1="17.6" y1="12.55" x2="19.2" y2="12.55" stroke="black" stroke-width="0.5"/>
<line x1="4.79999" y1="15.75" x2="6.39999" y2="15.75" stroke="black" stroke-width="0.5"/>
<line x1="8" y1="15.75" x2="9.6" y2="15.75" stroke="black" stroke-width="0.5"/>
<line x1="14.4" y1="15.75" x2="16" y2="15.75" stroke="black" stroke-width="0.5"/>
<line x1="11.2" y1="15.75" x2="12.8" y2="15.75" stroke="black" stroke-width="0.5"/>
<line x1="17.6" y1="15.75" x2="19.2" y2="15.75" stroke="black" stroke-width="0.5"/>
<line x1="4.79999" y1="17.35" x2="6.39999" y2="17.35" stroke="black" stroke-width="0.5"/>
<line x1="4.79999" y1="18.95" x2="6.39999" y2="18.95" stroke="black" stroke-width="0.5"/>
<line x1="8" y1="17.35" x2="9.6" y2="17.35" stroke="black" stroke-width="0.5"/>
<line x1="8" y1="18.95" x2="9.6" y2="18.95" stroke="black" stroke-width="0.5"/>
<line x1="14.4" y1="17.35" x2="16" y2="17.35" stroke="black" stroke-width="0.5"/>
<line x1="11.2" y1="17.35" x2="12.8" y2="17.35" stroke="black" stroke-width="0.5"/>
<line x1="17.6" y1="17.35" x2="19.2" y2="17.35" stroke="black" stroke-width="0.5"/>
<line x1="4.79999" y1="14.15" x2="6.39999" y2="14.15" stroke="black" stroke-width="0.5"/>
<line x1="8" y1="14.15" x2="9.6" y2="14.15" stroke="black" stroke-width="0.5"/>
<line x1="14.4" y1="14.15" x2="16" y2="14.15" stroke="black" stroke-width="0.5"/>
<line x1="11.2" y1="14.15" x2="12.8" y2="14.15" stroke="black" stroke-width="0.5"/>
<line x1="17.6" y1="14.15" x2="19.2" y2="14.15" stroke="black" stroke-width="0.5"/>
</svg>
