<svg width="15" height="15" viewBox="0 0 15 15" fill="none" xmlns="http://www.w3.org/2000/svg">
<path d="M11.875 2.5H3.125C2.43464 2.5 1.875 3.05964 1.875 3.75V12.5C1.875 13.1904 2.43464 13.75 3.125 13.75H11.875C12.5654 13.75 13.125 13.1904 13.125 12.5V3.75C13.125 3.05964 12.5654 2.5 11.875 2.5Z" stroke="white" stroke-width="0.666667" stroke-linecap="round" stroke-linejoin="round"/>
<path d="M10 1.25V3.75" stroke="white" stroke-width="0.666667" stroke-linecap="round" stroke-linejoin="round"/>
<path d="M4.99995 1.25V3.75" stroke="white" stroke-width="0.666667" stroke-linecap="round" stroke-linejoin="round"/>
<path d="M1.875 6.25H13.125" stroke="white" stroke-width="0.666667" stroke-linecap="round" stroke-linejoin="round"/>
<line x1="3" y1="7.75" x2="4" y2="7.75" stroke="white" stroke-width="0.5"/>
<line x1="5" y1="7.75" x2="6" y2="7.75" stroke="white" stroke-width="0.5"/>
<line x1="7" y1="7.75" x2="8" y2="7.75" stroke="white" stroke-width="0.5"/>
<line x1="9" y1="7.75" x2="10" y2="7.75" stroke="white" stroke-width="0.5"/>
<line x1="7" y1="7.75" x2="8" y2="7.75" stroke="white" stroke-width="0.5"/>
<line x1="11" y1="7.75" x2="12" y2="7.75" stroke="white" stroke-width="0.5"/>
<line x1="3" y1="9.75" x2="4" y2="9.75" stroke="white" stroke-width="0.5"/>
<line x1="5" y1="9.75" x2="6" y2="9.75" stroke="white" stroke-width="0.5"/>
<line x1="9" y1="9.75" x2="10" y2="9.75" stroke="white" stroke-width="0.5"/>
<line x1="7" y1="9.75" x2="8" y2="9.75" stroke="white" stroke-width="0.5"/>
<line x1="11" y1="9.75" x2="12" y2="9.75" stroke="white" stroke-width="0.5"/>
<line x1="3" y1="10.75" x2="4" y2="10.75" stroke="white" stroke-width="0.5"/>
<line x1="3" y1="11.75" x2="4" y2="11.75" stroke="white" stroke-width="0.5"/>
<line x1="5" y1="10.75" x2="6" y2="10.75" stroke="white" stroke-width="0.5"/>
<line x1="5" y1="11.75" x2="6" y2="11.75" stroke="white" stroke-width="0.5"/>
<line x1="9" y1="10.75" x2="10" y2="10.75" stroke="white" stroke-width="0.5"/>
<line x1="7" y1="10.75" x2="8" y2="10.75" stroke="white" stroke-width="0.5"/>
<line x1="11" y1="10.75" x2="12" y2="10.75" stroke="white" stroke-width="0.5"/>
<line x1="3" y1="8.75" x2="4" y2="8.75" stroke="white" stroke-width="0.5"/>
<line x1="5" y1="8.75" x2="6" y2="8.75" stroke="white" stroke-width="0.5"/>
<line x1="9" y1="8.75" x2="10" y2="8.75" stroke="white" stroke-width="0.5"/>
<line x1="7" y1="8.75" x2="8" y2="8.75" stroke="white" stroke-width="0.5"/>
<line x1="11" y1="8.75" x2="12" y2="8.75" stroke="white" stroke-width="0.5"/>
</svg>
