<svg width="24" height="24" viewBox="0 0 24 24" fill="none" xmlns="http://www.w3.org/2000/svg">
<path d="M21 4H3C1.89543 4 1 4.89543 1 6V18C1 19.1046 1.89543 20 3 20H21C22.1046 20 23 19.1046 23 18V14.25V10.5V6C23 4.89543 22.1046 4 21 4Z" stroke="black" stroke-linecap="round" stroke-linejoin="round"/>
<path d="M1 10H6.5M23 10H17.5" stroke="black" stroke-linecap="round" stroke-linejoin="round"/>
<path d="M14.9166 9.08334L9.08331 14.9167" stroke="black" stroke-linecap="round" stroke-linejoin="round"/>
<path d="M9.70835 10.75C10.2837 10.75 10.75 10.2836 10.75 9.70832C10.75 9.13303 10.2837 8.66666 9.70835 8.66666C9.13306 8.66666 8.66669 9.13303 8.66669 9.70832C8.66669 10.2836 9.13306 10.75 9.70835 10.75Z" stroke="black" stroke-linecap="round" stroke-linejoin="round"/>
<path d="M14.2917 15.3333C14.867 15.3333 15.3333 14.867 15.3333 14.2917C15.3333 13.7164 14.867 13.25 14.2917 13.25C13.7164 13.25 13.25 13.7164 13.25 14.2917C13.25 14.867 13.7164 15.3333 14.2917 15.3333Z" stroke="black" stroke-linecap="round" stroke-linejoin="round"/>
</svg>
