<svg width="13" height="13" viewBox="0 0 13 13" fill="none" xmlns="http://www.w3.org/2000/svg">
<path d="M11.5294 4.50735C11.9267 4.50735 12.25 4.18952 12.25 3.79885V2.88148C12.25 2.59059 12.0728 2.33277 11.7984 2.2242L6.39518 0.0519333C6.21924 -0.0177598 6.02884 -0.0165317 5.85736 0.0509414C5.85337 0.0525237 5.9478 0.0145716 0.451568 2.22423C0.177192 2.33277 0 2.59062 0 2.8815V3.7989C0 4.18957 0.323255 4.5074 0.720587 4.5074H1.15294V9.84479H0.720587C0.323255 9.84479 0 10.1626 0 10.5533V11.3799C0 11.7705 0.323255 12.0884 0.720587 12.0884H11.5294C11.9267 12.0884 12.25 11.7705 12.25 11.3799V10.5533C12.25 10.1626 11.9267 9.84479 11.5294 9.84479H11.097V4.5074L11.5294 4.50735ZM11.5294 10.5532C11.5299 11.3987 11.5318 11.3798 11.5294 11.3798H0.720611V10.5532H11.5294ZM1.87355 9.84474V4.50735H2.69021V9.84474H1.87355ZM3.4108 9.84474V4.50735H4.99609V9.84474H3.4108ZM5.71668 9.84474V4.50735H6.53334V9.84474H5.71668ZM7.25393 9.84474V4.50735H8.83922V9.84474H7.25393ZM9.55981 9.84474V4.50735H10.3765V9.84474H9.55981ZM0.720611 3.79885C0.720611 2.81065 0.71953 2.88191 0.723133 2.88047L6.12501 0.708739L11.5269 2.88047C11.5306 2.88193 11.5294 2.81299 11.5294 3.79885C11.4097 3.79885 0.862927 3.79885 0.720611 3.79885Z" fill="#8A8A8A"/>
</svg>
