<svg width="16" height="15" viewBox="0 0 16 15" fill="none" xmlns="http://www.w3.org/2000/svg">
<path d="M13.375 7.18752C13.3771 8.01243 13.1844 8.8262 12.8125 9.56252C12.3715 10.4449 11.6936 11.187 10.8547 11.7058C10.0157 12.2246 9.0489 12.4996 8.0625 12.5C7.23758 12.5022 6.42382 12.3094 5.6875 11.9375L2.125 13.125L3.3125 9.56252C2.94058 8.8262 2.74785 8.01243 2.75 7.18752C2.75038 6.20112 3.02538 5.2343 3.5442 4.39536C4.06302 3.55642 4.80516 2.8785 5.6875 2.43752C6.42382 2.0656 7.23758 1.87287 8.0625 1.87502H8.375C9.67772 1.94689 10.9082 2.49674 11.8307 3.4193C12.7533 4.34187 13.3031 5.5723 13.375 6.87502V7.18752Z" stroke="white" stroke-linecap="round" stroke-linejoin="round"/>
</svg>
