<svg width="25" height="24" viewBox="0 0 25 24" fill="none" xmlns="http://www.w3.org/2000/svg">
<path d="M12.4596 13C13.033 13 13.4979 12.5523 13.4979 12C13.4979 11.4477 13.033 11 12.4596 11C11.8861 11 11.4213 11.4477 11.4213 12C11.4213 12.5523 11.8861 13 12.4596 13Z" stroke="black" stroke-linecap="round" stroke-linejoin="round"/>
<path d="M19.7276 13C20.3011 13 20.7659 12.5523 20.7659 12C20.7659 11.4477 20.3011 11 19.7276 11C19.1542 11 18.6893 11.4477 18.6893 12C18.6893 12.5523 19.1542 13 19.7276 13Z" stroke="black" stroke-linecap="round" stroke-linejoin="round"/>
<path d="M5.1915 13C5.76493 13 6.22979 12.5523 6.22979 12C6.22979 11.4477 5.76493 11 5.1915 11C4.61806 11 4.1532 11.4477 4.1532 12C4.1532 12.5523 4.61806 13 5.1915 13Z" stroke="black" stroke-linecap="round" stroke-linejoin="round"/>
</svg>
