<svg width="40" height="40" viewBox="0 0 40 40" fill="none" xmlns="http://www.w3.org/2000/svg">
<path d="M8.78049 16.2539C13.6083 16.2539 17.522 20.1677 17.522 24.9954C17.522 29.8231 13.6083 33.7368 8.78049 33.7368C3.9527 33.7368 0.0390244 29.8231 0.0390244 24.9954L0 23.7466C0 14.091 7.82736 6.26367 17.4829 6.26367V11.2588C14.1474 11.2588 11.0114 12.5578 8.65272 14.9164C8.19871 15.3705 7.78435 15.8536 7.41058 16.3611C7.85694 16.2908 8.31438 16.2539 8.78049 16.2539ZM31.2585 16.2539C36.0862 16.2539 40 20.1677 40 24.9954C40 29.8231 36.0862 33.7368 31.2585 33.7368C26.4308 33.7368 22.5171 29.8231 22.5171 24.9954L22.478 23.7466C22.478 14.091 30.3053 6.26367 39.961 6.26367V11.2588C36.6255 11.2588 33.4893 12.5578 31.1308 14.9164C30.6767 15.3705 30.2623 15.8536 29.8885 16.3611C30.3349 16.2908 30.7924 16.2539 31.2585 16.2539Z" fill="black"/>
</svg>
