<svg width="24" height="23" viewBox="0 0 24 23" fill="none" xmlns="http://www.w3.org/2000/svg">
<path d="M21.3041 2.15897H8.64725C8.44899 2.15897 8.28852 2.31298 8.28852 2.50275V7.4597H2.6124C2.41414 7.4597 2.25366 7.61348 2.25366 7.80348V17.4478C2.25366 17.6378 2.41414 17.7916 2.6124 17.7916H5.61332L8.43703 20.6524C8.50615 20.7225 8.60109 20.7599 8.69771 20.7599C8.7422 20.7599 8.78716 20.7519 8.83021 20.7356C8.96676 20.6836 9.05621 20.557 9.05645 20.4163L9.05788 17.7916H15.886C16.0843 17.7916 16.2448 17.6378 16.2448 17.4478V12.492H21.3041C21.5024 12.492 21.6628 12.338 21.6628 12.1483V2.50275C21.6628 2.31298 21.5024 2.15897 21.3041 2.15897ZM15.5273 17.1041H8.69939C8.50137 17.1041 8.34065 17.2578 8.34065 17.4478L8.33946 19.5532L6.0285 17.2118C5.96058 17.1432 5.86635 17.1043 5.76782 17.1043H2.97113V8.1475H8.28852V12.1485C8.28852 12.3383 8.44899 12.4923 8.64725 12.4923H11.1883V14.9036C11.1883 15.042 11.2749 15.1669 11.4081 15.2206C11.453 15.2387 11.5001 15.2474 11.5468 15.2474C11.6391 15.2474 11.7297 15.2132 11.7981 15.1488L14.623 12.4923H15.5273V17.1041ZM20.9454 11.8045H14.4767C14.3827 11.8045 14.2925 11.8398 14.2253 11.9028L11.9055 14.0842V12.1483C11.9055 11.9583 11.745 11.8045 11.5468 11.8045H9.00575V2.84654H20.9451V11.8042H20.9454V11.8045Z" fill="#231F20"/>
</svg>
