<svg width="24" height="23" viewBox="0 0 24 23" fill="none" xmlns="http://www.w3.org/2000/svg">
<path d="M23.4234 11.6459C23.3366 11.4749 23.1218 11.4041 22.9441 11.4868L20.4064 12.6683L18.6771 13.3862C18.4102 13.3201 17.7284 13.1489 17.1159 12.975L16.8155 12.8677C16.7715 12.8521 16.7263 12.8457 16.682 12.8469C16.4697 12.7811 16.2851 12.7187 16.1607 12.6663C15.5642 12.4146 14.4986 11.8231 14.069 11.466C13.5838 11.064 12.3196 9.57196 12.3069 9.55683C12.1996 9.42986 12.0137 9.39296 11.8626 9.46836C11.5148 9.64186 10.387 10.0996 9.78982 9.93316C9.47461 9.84332 8.89131 9.53666 8.72629 9.34575C8.61628 9.21877 8.52253 8.76108 8.57203 8.61486C8.70094 8.55229 9.18977 8.63159 9.42917 8.67032C9.83884 8.73679 10.2263 8.79958 10.5255 8.70676C11.108 8.52639 12.2828 7.56447 12.5659 7.32795C12.8469 7.22963 14.2333 6.78179 15.2002 7.15033C15.7104 7.34491 16.2064 7.41206 16.6488 7.41206C17.6057 7.41206 18.3114 7.09692 18.3638 7.07286L21.888 5.26798C22.0626 5.17837 22.1286 4.97026 22.0353 4.80272C21.9418 4.63541 21.7246 4.57193 21.5498 4.66154L18.0414 6.45863C18.0292 6.46413 16.7813 7.01281 15.4655 6.51134C14.3194 6.07404 12.8326 6.50882 12.3818 6.66054C11.8817 6.4788 10.476 5.99681 9.85128 6.08757C9.26822 6.17328 7.57021 6.25006 6.8824 6.12836C6.59206 6.04975 4.38657 4.90609 2.45921 3.87014C2.28606 3.77732 2.06771 3.83622 1.97086 4.00193C1.874 4.1674 1.93546 4.37711 2.10813 4.46994C3.36872 5.14765 6.34382 6.73113 6.73986 6.80195C7.58121 6.95139 9.38923 6.851 9.95914 6.76735C10.2409 6.72632 11.0062 6.92824 11.676 7.1478C11.1752 7.54041 10.5774 7.96785 10.3047 8.05219C10.1722 8.09322 9.82665 8.03706 9.54875 7.99191C8.98027 7.89978 8.39267 7.80444 8.04828 8.13928C7.66396 8.51676 7.89427 9.46195 8.1736 9.78419C8.46178 10.1177 9.19001 10.4796 9.58725 10.5925C10.3602 10.8078 11.429 10.4163 11.9291 10.1997C12.3074 10.6395 13.1799 11.6379 13.5989 11.9851C14.1216 12.4199 15.2937 13.0513 15.8711 13.2949C16.0959 13.3898 16.4759 13.5085 16.882 13.6247L18.5644 14.2255C18.6525 14.269 18.7192 14.3501 18.7629 14.467C18.839 14.6703 18.8237 14.9417 18.7254 15.1415C18.6053 15.3836 18.3361 15.5096 18.0809 15.4743C18.0304 15.4464 17.9737 15.4308 17.9151 15.4285L15.6341 14.2944C15.4583 14.2069 15.2416 14.2729 15.1505 14.4413C15.0594 14.6098 15.1278 14.8174 15.3038 14.9048L17.6011 16.0466C17.6081 16.0498 17.6152 16.0516 17.6222 16.0549C17.6396 16.1419 17.6234 16.2025 17.5975 16.2822C17.5801 16.3358 17.5598 16.3986 17.5495 16.4713C17.3988 16.7381 17.0578 16.8561 16.7653 16.7355L14.8398 15.9336C14.8312 15.9299 14.8224 15.9286 14.8135 15.9256C14.802 15.9217 14.7906 15.9176 14.7791 15.915C14.7674 15.9123 14.7554 15.9109 14.7437 15.9095C14.7322 15.9082 14.721 15.9063 14.7097 15.9059C14.6975 15.9054 14.6856 15.9063 14.6736 15.9073C14.6626 15.9079 14.6516 15.9082 14.6409 15.91C14.6289 15.9118 14.6174 15.9148 14.6059 15.9178C14.5954 15.9205 14.5847 15.9228 14.5744 15.9265C14.5634 15.9304 14.5531 15.9354 14.5426 15.9403C14.5323 15.9451 14.522 15.9494 14.5122 15.9552C14.5024 15.9607 14.4935 15.9675 14.4844 15.9739C14.4749 15.9806 14.4656 15.9872 14.4567 15.9948C14.4483 16.0021 14.4409 16.0104 14.4333 16.0184C14.4251 16.0271 14.4168 16.0354 14.4096 16.0448C14.4027 16.0537 14.3972 16.0636 14.3909 16.0732C14.3859 16.0812 14.3802 16.0881 14.3759 16.0966C14.3744 16.0993 14.374 16.1023 14.3725 16.105C14.3713 16.1076 14.3694 16.1096 14.3685 16.1122C14.3649 16.1199 14.3634 16.1277 14.3606 16.1358C14.3563 16.1474 14.3517 16.1591 14.3488 16.1708C14.3462 16.1814 14.345 16.1921 14.3436 16.2029C14.3419 16.2144 14.34 16.2258 14.3398 16.2373C14.3393 16.2483 14.3402 16.2593 14.341 16.2703C14.3417 16.2813 14.3421 16.2923 14.3438 16.3033C14.3457 16.3143 14.3488 16.3251 14.3517 16.3358C14.3546 16.3464 14.3572 16.3567 14.361 16.367C14.3651 16.3773 14.3701 16.3874 14.3752 16.3973C14.3799 16.4071 14.3847 16.417 14.3905 16.4261C14.3964 16.4358 14.4036 16.4447 14.4105 16.4536C14.4172 16.4626 14.4239 16.4713 14.4316 16.4795C14.4395 16.488 14.4486 16.4954 14.4577 16.5031C14.4663 16.5105 14.4744 16.518 14.4837 16.5247C14.4935 16.5316 14.5043 16.5375 14.5151 16.5435C14.5227 16.5481 14.5296 16.5533 14.5378 16.5572L15.051 16.8009C15.3555 16.9395 15.486 17.2897 15.3418 17.582C15.271 17.7254 15.1464 17.8338 14.991 17.887C14.8377 17.9395 14.6729 17.9315 14.5261 17.8645L13.0828 17.2111L13.4941 16.5423C13.8901 15.9008 13.6673 15.0689 12.9976 14.688C12.9974 14.688 12.9971 14.6877 12.9971 14.6877C12.6982 14.5186 12.3603 14.467 12.0422 14.5177C12.1075 13.905 11.8159 13.2867 11.2389 12.9578C11.2384 12.9573 11.2377 12.9571 11.2369 12.9566C10.6637 12.6339 9.96871 12.6798 9.4428 13.0153C9.33829 12.7174 9.12759 12.452 8.82363 12.2789C8.14897 11.8994 7.27844 12.1132 6.88312 12.7552L5.92123 14.3153L3.56698 12.7013C3.55861 12.6956 3.54928 12.6917 3.54044 12.6869C3.53183 12.6821 3.52417 12.6761 3.51509 12.672L0.970228 11.4875C0.792296 11.4048 0.577295 11.4756 0.49096 11.6466C0.404385 11.8173 0.478763 12.0232 0.656934 12.1061L3.17453 13.2782L5.58904 14.9336C5.40418 15.5183 5.65123 16.172 6.22544 16.4965C6.45096 16.6237 6.69849 16.6842 6.94291 16.6842C7.02159 16.6842 7.09955 16.6757 7.1768 16.6634C7.10888 17.2813 7.40304 17.9051 7.98586 18.2356C8.24343 18.3809 8.53066 18.4552 8.82339 18.4552C8.97238 18.4552 9.12281 18.4359 9.27133 18.397C9.45404 18.3491 9.62408 18.2723 9.77786 18.173C9.88357 18.4691 10.095 18.7325 10.398 18.9046C10.623 19.0316 10.8703 19.0921 11.1145 19.0921C11.5986 19.0921 12.0711 18.8546 12.3354 18.4279L12.7173 17.8066L14.219 18.4866C14.3991 18.5686 14.5921 18.6101 14.7858 18.6101C14.936 18.6101 15.0866 18.5854 15.2325 18.5354C15.5688 18.4206 15.8383 18.1866 15.9909 17.8765C16.0966 17.6622 16.1327 17.4339 16.1112 17.2136L16.4809 17.3677C16.651 17.438 16.8286 17.471 17.0035 17.471C17.5191 17.471 18.012 17.1825 18.2308 16.7012C18.2507 16.6579 18.2607 16.6127 18.2607 16.5655C18.2617 16.5529 18.2741 16.5153 18.283 16.4878C18.3093 16.4064 18.3447 16.2976 18.3492 16.1566C18.7797 16.0991 19.1738 15.8415 19.3742 15.437C19.5545 15.0712 19.5792 14.6109 19.4388 14.2358C19.391 14.1083 19.3238 13.9981 19.2444 13.9007L20.6987 13.297C20.7013 13.2959 20.7035 13.2942 20.7061 13.2929C20.7082 13.292 20.7106 13.2917 20.7128 13.2906L23.2576 12.1059C23.4356 12.0222 23.5099 11.8167 23.4234 11.6459ZM6.58967 15.9034C6.25725 15.7156 6.14532 15.3047 6.33999 14.988L7.50086 13.1047C7.63048 12.8945 7.86366 12.7779 8.10305 12.7779C8.2243 12.7779 8.34723 12.8079 8.45891 12.8707C8.78919 13.0589 8.89968 13.4691 8.70501 13.7852L7.54462 15.6687C7.34947 15.9854 6.92066 16.0904 6.58967 15.9034ZM9.08192 17.733C8.82961 17.799 8.56988 17.7667 8.3501 17.6427C7.8902 17.3819 7.74432 16.797 8.02437 16.3393L9.52722 13.9039C9.71568 13.5965 10.0512 13.4242 10.392 13.4242C10.5566 13.4242 10.722 13.4643 10.8727 13.5489C11.3297 13.8099 11.473 14.3928 11.192 14.8482L9.69009 17.2833C9.55329 17.5063 9.33733 17.6661 9.08192 17.733ZM11.7177 18.0772C11.522 18.3933 11.093 18.4983 10.7627 18.3117C10.4298 18.1228 10.3179 17.7119 10.5135 17.3954L11.6734 15.5121C11.8033 15.3022 12.036 15.1858 12.2751 15.1858C12.3969 15.1858 12.52 15.216 12.6324 15.2795C12.962 15.4674 13.072 15.8768 12.8768 16.1928L12.3902 16.9845C12.2892 17.0083 12.1996 17.0725 12.1517 17.1696C12.1139 17.2464 12.1099 17.3294 12.1314 17.4055L11.7177 18.0772Z" fill="#231F20"/>
</svg>
