<svg width="36" height="35" fill="none" xmlns="http://www.w3.org/2000/svg"><g clip-path="url(#clip0)"><path d="M18.15 2.917c8.041 0 14.583 6.542 14.583 14.583S26.191 32.083 18.15 32.083 3.567 25.541 3.567 17.5 10.109 2.917 18.15 2.917zm0-2.917C8.486 0 .65 7.836.65 17.5S8.486 35 18.15 35s17.5-7.836 17.5-17.5S27.814 0 18.15 0zm-2.917 14.583h-2.916V17.5h2.916v8.75h4.375V17.5h2.654l.263-2.917h-2.917v-1.215c0-.697.14-.972.814-.972h2.103V8.75h-3.506c-2.622 0-3.786 1.155-3.786 3.366v2.467z" fill="#000"/></g><defs><clipPath id="clip0"><path fill="#fff" transform="translate(.65)" d="M0 0h35v35H0z"/></clipPath></defs></svg>