<svg width="30" height="30" fill="none" xmlns="http://www.w3.org/2000/svg"><path d="M15 2.5c6.892 0 12.5 5.607 12.5 12.5 0 6.892-5.608 12.5-12.5 12.5-6.893 0-12.5-5.608-12.5-12.5C2.5 8.107 8.107 2.5 15 2.5zM15 0C6.716 0 0 6.716 0 15c0 8.284 6.716 15 15 15 8.284 0 15-6.716 15-15 0-8.284-6.716-15-15-15zm-.01 18.01a2.941 2.941 0 10-1.936-5.154 2.937 2.937 0 00-1.007 2.212 2.947 2.947 0 002.943 2.942zm.01-5.116c1.201 0 2.172.972 2.172 2.174a2.173 2.173 0 11-4.345 0c0-1.2.972-2.174 2.173-2.174zm3.264.231H22.5v6.424a2.952 2.952 0 01-2.951 2.951H10.49c-1.63 0-2.99-1.321-2.99-2.951v-6.424h4.216a3.794 3.794 0 00-.545 1.943 3.82 3.82 0 007.638 0c0-.712-.205-1.372-.545-1.943zM19.549 7.5h-7.674v3.125h-.625V7.5h-.625v3.125H10V7.549a2.97 2.97 0 00-.625.167v2.909H8.75V8.061a2.932 2.932 0 00-1.25 2.39V12.5h4.67a3.8 3.8 0 015.639 0H22.5v-2.05a2.952 2.952 0 00-2.951-2.95zm1.701 3.29c0 .254-.207.46-.466.46h-1.569a.463.463 0 01-.465-.46V9.209c0-.253.209-.459.465-.459h1.569c.259 0 .466.206.466.459v1.581z" fill="#009EE2"/></svg>