<svg width="36" height="35" fill="none" xmlns="http://www.w3.org/2000/svg"><g clip-path="url(#clip0)"><path d="M17.8 2.917c8.041 0 14.583 6.542 14.583 14.583S25.841 32.083 17.8 32.083 3.217 25.541 3.217 17.5 9.759 2.917 17.8 2.917zM17.8 0C8.136 0 .3 7.836.3 17.5S8.136 35 17.8 35s17.5-7.836 17.5-17.5S27.464 0 17.8 0zm-.012 21.012a3.431 3.431 0 100-6.864 3.4 3.4 0 00-2.259.851 3.426 3.426 0 00-1.174 2.58 3.439 3.439 0 003.433 3.433zm.012-5.97a2.534 2.534 0 012.535 2.537 2.535 2.535 0 11-5.07 0c0-1.4 1.133-2.536 2.535-2.536zm3.808.27h4.942v7.495a3.444 3.444 0 01-3.443 3.443H12.54c-1.903 0-3.49-1.541-3.49-3.443v-7.494h4.919a4.428 4.428 0 00-.636 2.266 4.456 4.456 0 008.91 0c0-.83-.239-1.6-.635-2.267zm1.499-6.562h-8.953v3.646h-.729V8.75h-.73v3.646h-.728v-3.59a3.537 3.537 0 00-.73.196v3.394h-.729V9.405a3.42 3.42 0 00-1.458 2.788v2.39h5.448a4.436 4.436 0 016.579 0h5.473v-2.391c0-1.9-1.543-3.442-3.443-3.442zm1.985 3.838a.54.54 0 01-.544.537h-1.83a.54.54 0 01-.543-.537v-1.845a.54.54 0 01.543-.535h1.83a.54.54 0 01.544.535v1.845z" fill="#000"/></g><defs><clipPath id="clip0"><path fill="#fff" transform="translate(.3)" d="M0 0h35v35H0z"/></clipPath></defs></svg>