<svg width="40" height="40" fill="none" xmlns="http://www.w3.org/2000/svg"><g clip-path="url(#clip0)"><path d="M20 40c11.046 0 20-8.954 20-20S31.046 0 20 0 0 8.954 0 20s8.954 20 20 20z" fill="#F99400"/><path fill-rule="evenodd" clip-rule="evenodd" d="M18.1 24.114a8.712 8.712 0 01-2.705-1.12 1.368 1.368 0 01-.458-1.872 1.36 1.36 0 011.885-.47 6.095 6.095 0 002.083.813c1.47.264 2.852.02 4.139-.736.263-.155.528-.276.841-.274.608.003 1.14.392 1.316.97a1.36 1.36 0 01-.56 1.546 8.55 8.55 0 01-2.601 1.11l-.135.035c.038.041.067.073.098.104l2.472 2.472c.481.483.582 1.145.263 1.697-.46.795-1.518.927-2.18.269-.822-.817-1.639-1.638-2.457-2.456-.03-.03-.057-.06-.122-.132-.027.049-.042.096-.072.126-.82.823-1.64 1.645-2.464 2.464-.565.564-1.428.56-1.974-.002a1.368 1.368 0 01-.03-1.868c.065-.074.136-.143.205-.213l2.36-2.36.097-.103zm1.903-13.196a4.694 4.694 0 014.684 4.686 4.682 4.682 0 01-4.682 4.686 4.677 4.677 0 01-4.69-4.677 4.69 4.69 0 014.688-4.695zm1.936 4.69a1.937 1.937 0 00-1.924-1.94c-1.077-.003-1.954.86-1.956 1.923-.001 1.065.862 1.951 1.904 1.952 1.105.001 1.976-.851 1.976-1.935z" fill="#fff"/></g><defs><clipPath id="clip0"><path fill="#fff" d="M0 0h40v40H0z"/></clipPath></defs></svg>