<svg width="40" height="40" fill="none" xmlns="http://www.w3.org/2000/svg"><path d="M20 40c11.046 0 20-8.954 20-20S31.046 0 20 0 0 8.954 0 20s8.954 20 20 20z" fill="#139BD0"/><path fill-rule="evenodd" clip-rule="evenodd" d="M20.655 24.78c-.77.75-1.533 1.487-2.29 2.231-.264.26-.562.405-.941.384-.26-.013-.404-.127-.484-.373-.58-1.798-1.167-3.593-1.744-5.393-.056-.175-.138-.26-.315-.314a376.136 376.136 0 01-4.089-1.276 2.325 2.325 0 01-.601-.277c-.28-.19-.32-.498-.07-.72.232-.206.508-.384.795-.498 1.67-.661 3.347-1.301 5.022-1.947 4.251-1.642 8.502-3.282 12.754-4.923.808-.312 1.43.128 1.346 1.002-.054.559-.199 1.11-.316 1.661-.923 4.359-1.847 8.718-2.775 13.076-.22 1.035-.947 1.305-1.799.677-1.426-1.051-2.85-2.106-4.276-3.159-.068-.05-.139-.097-.217-.152zm-3.2 1.323l.047-.013c.009-.04.022-.08.025-.121.092-.988.189-1.976.268-2.966a.726.726 0 01.26-.525c1.314-1.175 2.62-2.359 3.93-3.539 1.45-1.307 2.9-2.613 4.343-3.925.09-.081.127-.219.188-.331-.136-.015-.281-.07-.405-.037-.169.043-.328.141-.478.236-3.199 2.014-6.395 4.033-9.596 6.043-.18.114-.214.21-.146.41.236.677.451 1.36.674 2.044l.89 2.724z" fill="#fff"/></svg>