<svg width="36" height="35" fill="none" xmlns="http://www.w3.org/2000/svg"><g clip-path="url(#clip0)"><path d="M18.475 2.917c8.041 0 14.583 6.542 14.583 14.583s-6.542 14.583-14.583 14.583S3.892 25.541 3.892 17.5 10.434 2.917 18.475 2.917zm0-2.917C8.811 0 .975 7.836.975 17.5S8.811 35 18.475 35s17.5-7.836 17.5-17.5S28.139 0 18.475 0zm9.48 12.801a7.187 7.187 0 01-2.063.566 3.606 3.606 0 001.58-1.986 7.185 7.185 0 01-2.281.87 3.58 3.58 0 00-2.62-1.134c-2.318 0-4.022 2.163-3.498 4.408a10.198 10.198 0 01-7.4-3.75 3.595 3.595 0 001.112 4.793 3.583 3.583 0 01-1.625-.449c-.04 1.663 1.153 3.218 2.88 3.566a3.597 3.597 0 01-1.621.06 3.595 3.595 0 003.354 2.493 7.225 7.225 0 01-5.319 1.49 10.155 10.155 0 005.502 1.612c6.668 0 10.433-5.63 10.206-10.68a7.238 7.238 0 001.792-1.859z" fill="#000"/></g><defs><clipPath id="clip0"><path fill="#fff" transform="translate(.975)" d="M0 0h35v35H0z"/></clipPath></defs></svg>