<svg width="40" height="40" fill="none" xmlns="http://www.w3.org/2000/svg"><g clip-path="url(#clip0)"><path d="M20 40c11.046 0 20-8.955 20-20C40 8.954 31.047 0 20 0 8.956 0 .002 8.954.002 20c0 11.045 8.954 20 20 20z" fill="#55ACEE"/><path d="M32.252 14.373c-.857.38-1.78.637-2.746.752a4.793 4.793 0 002.102-2.644 9.571 9.571 0 01-3.036 1.16 4.776 4.776 0 00-3.49-1.51 4.781 4.781 0 00-4.656 5.87 13.57 13.57 0 01-9.854-4.995 4.78 4.78 0 001.48 6.383 4.747 4.747 0 01-2.166-.599v.06a4.783 4.783 0 003.835 4.688 4.764 4.764 0 01-2.159.082 4.786 4.786 0 004.466 3.32 9.592 9.592 0 01-5.938 2.047c-.385 0-.766-.023-1.14-.067a13.522 13.522 0 007.328 2.148c8.793 0 13.602-7.285 13.602-13.602 0-.207-.005-.414-.014-.619a9.698 9.698 0 002.386-2.474z" fill="#F1F2F2"/></g><defs><clipPath id="clip0"><path fill="#fff" d="M0 0h40v40H0z"/></clipPath></defs></svg>