<svg width="30" height="30" fill="none" xmlns="http://www.w3.org/2000/svg"><path d="M15 2.5c6.892 0 12.5 5.607 12.5 12.5 0 6.892-5.608 12.5-12.5 12.5-6.893 0-12.5-5.608-12.5-12.5C2.5 8.107 8.107 2.5 15 2.5zM15 0C6.716 0 0 6.716 0 15c0 8.284 6.716 15 15 15 8.284 0 15-6.716 15-15 0-8.284-6.716-15-15-15zm8.125 10.973a6.16 6.16 0 01-1.767.484 3.091 3.091 0 001.353-1.702 6.158 6.158 0 01-1.955.746 3.08 3.08 0 00-5.244 2.806 8.74 8.74 0 01-6.342-3.215 3.082 3.082 0 00.953 4.11 3.072 3.072 0 01-1.393-.386c-.034 1.425.989 2.759 2.469 3.056a3.084 3.084 0 01-1.39.053 3.082 3.082 0 002.875 2.136 6.193 6.193 0 01-4.559 1.276 8.703 8.703 0 004.716 1.383c5.715 0 8.943-4.826 8.748-9.155a6.204 6.204 0 001.536-1.592z" fill="#009EE2"/></svg>