<svg width="36" height="35" fill="none" xmlns="http://www.w3.org/2000/svg"><g clip-path="url(#clip0)"><path d="M17.825 2.917c8.041 0 14.583 6.542 14.583 14.583s-6.542 14.583-14.583 14.583S3.242 25.541 3.242 17.5 9.784 2.917 17.825 2.917zm0-2.917C8.161 0 .325 7.836.325 17.5S8.161 35 17.825 35s17.5-7.836 17.5-17.5S27.489 0 17.825 0zm.847 23.329c.444 0 .626-.297.62-.668-.023-1.397.52-2.15 1.502-1.17 1.085 1.085 1.307 1.838 2.627 1.838h2.334c.588 0 .82-.19.82-.487 0-.63-1.037-1.741-1.913-2.555-1.231-1.142-1.287-1.17-.228-2.543 1.313-1.705 3.032-3.89 1.512-3.89h-2.903c-.564 0-.604.317-.804.79-.726 1.711-2.104 3.928-2.629 3.59-.55-.355-.297-1.755-.255-3.836.011-.55.009-.927-.833-1.123a5.837 5.837 0 00-1.317-.15c-1.658 0-2.803.696-2.154.817 1.145.213 1.037 2.692.769 3.762-.465 1.864-2.214-1.476-2.943-3.138-.175-.401-.226-.712-.855-.712H9.65c-.36 0-.575.117-.575.376 0 .44 2.157 4.9 4.218 7.124 2.01 2.169 3.998 1.975 5.38 1.975z" fill="#000"/></g><defs><clipPath id="clip0"><path fill="#fff" transform="translate(.325)" d="M0 0h35v35H0z"/></clipPath></defs></svg>