<svg width="40" height="40" fill="none" xmlns="http://www.w3.org/2000/svg"><path d="M20 0C8.955 0 0 8.954 0 20s8.955 20 20 20 20-8.954 20-20S31.045 0 20 0zm10.145 22.163c.932.91 1.918 1.767 2.755 2.772.371.444.72.904.986 1.42.38.738.037 1.546-.622 1.59l-4.098-.001c-1.058.088-1.9-.34-2.61-1.063-.567-.576-1.093-1.192-1.639-1.788a3.832 3.832 0 00-.737-.657c-.559-.363-1.044-.252-1.364.332-.326.593-.4 1.251-.432 1.912-.045.966-.336 1.219-1.305 1.264-2.072.097-4.037-.217-5.864-1.261-1.611-.921-2.859-2.221-3.945-3.693-2.117-2.87-3.738-6.019-5.194-9.259-.328-.73-.088-1.12.717-1.135 1.337-.026 2.674-.022 4.012-.001.544.009.904.32 1.113.833.723 1.778 1.609 3.47 2.719 5.04.296.417.598.834 1.028 1.128.475.326.836.219 1.06-.311.143-.337.205-.697.236-1.058.107-1.236.12-2.472-.065-3.703-.114-.771-.548-1.269-1.316-1.414-.391-.074-.334-.22-.143-.443.33-.386.64-.625 1.257-.625h4.63c.73.143.893.47.992 1.205l.004 5.144c-.008.285.143 1.128.654 1.314.409.135.679-.193.924-.452 1.11-1.178 1.9-2.569 2.61-4.008.312-.635.582-1.291.843-1.95.195-.486.498-.725 1.047-.717l4.458.005c.131 0 .265.001.395.024.751.128.957.452.725 1.184-.366 1.152-1.077 2.111-1.772 3.073-.745 1.03-1.539 2.023-2.276 3.057-.678.945-.624 1.421.217 2.242z" fill="#48749D"/></svg>