<svg width="30" height="30" fill="none" xmlns="http://www.w3.org/2000/svg"><path d="M15 2.5c6.892 0 12.5 5.607 12.5 12.5 0 6.892-5.608 12.5-12.5 12.5-6.893 0-12.5-5.608-12.5-12.5C2.5 8.107 8.107 2.5 15 2.5zM15 0C6.716 0 0 6.716 0 15c0 8.284 6.716 15 15 15 8.284 0 15-6.716 15-15 0-8.284-6.716-15-15-15zm.726 19.996c.38 0 .536-.255.531-.572-.02-1.198.445-1.843 1.288-1.003.93.93 1.12 1.575 2.251 1.575h2.002c.503 0 .702-.162.702-.417 0-.54-.889-1.493-1.64-2.19-1.055-.979-1.102-1.003-.195-2.18 1.125-1.461 2.599-3.334 1.296-3.334h-2.488c-.484 0-.518.271-.69.678-.622 1.466-1.803 3.366-2.253 3.076-.471-.304-.255-1.504-.219-3.288.01-.471.008-.795-.713-.962a5.009 5.009 0 00-1.13-.129c-1.42 0-2.402.596-1.845.7.98.183.888 2.308.658 3.225-.399 1.598-1.897-1.265-2.522-2.69-.15-.344-.194-.61-.733-.61H7.992c-.308 0-.492.1-.492.322 0 .377 1.849 4.2 3.615 6.107 1.724 1.859 3.428 1.692 4.611 1.692z" fill="#009EE2"/></svg>