<svg width="30" height="30" fill="none" xmlns="http://www.w3.org/2000/svg"><circle cx="15" cy="15" r="13.75" stroke="#2A98CE" stroke-width="2.5"/><g clip-path="url(#clip0)" fill-rule="evenodd" clip-rule="evenodd"><path d="M14.913 7.105c-3.254 0-5.509.011-6.666 1.142-1.13 1.157-1.141 3.518-1.141 6.666 3.496-.106 5.094-.193 6.37-1.438 1.244-1.275 1.332-2.874 1.437-6.37zM8.247 21.753c-1.13-1.157-1.141-3.517-1.141-6.666 3.495.106 5.094.193 6.369 1.438 1.245 1.275 1.333 2.874 1.438 6.37-3.254 0-5.509-.01-6.666-1.142zm6.84 1.142c.106-3.496.194-5.095 1.439-6.37 1.275-1.245 2.873-1.332 6.369-1.438 0 3.149-.011 5.51-1.141 6.666-1.158 1.131-3.412 1.142-6.666 1.142zm0-15.79c.106 3.496.194 5.095 1.439 6.37 1.275 1.245 2.873 1.332 6.369 1.438 0-3.148-.011-5.51-1.141-6.666-1.158-1.13-3.412-1.141-6.666-1.142z" fill="#009EE2"/><path d="M16.526 16.525c-1.245 1.275-1.333 2.874-1.438 6.37 3.254 0 5.508-.01 6.666-1.142 1.13-1.157 1.14-3.517 1.141-6.666-3.496.106-5.094.193-6.37 1.438zm-9.42-1.438c0 3.149.01 5.51 1.14 6.666 1.158 1.131 3.413 1.142 6.667 1.142-.105-3.496-.193-5.095-1.438-6.37-1.275-1.245-2.874-1.332-6.37-1.438zm7.807-7.982c-3.254 0-5.509.011-6.666 1.142-1.13 1.157-1.141 3.518-1.141 6.666 3.496-.106 5.094-.193 6.37-1.438 1.244-1.275 1.332-2.874 1.437-6.37zm1.613 6.37c-1.245-1.275-1.333-2.874-1.438-6.37 3.254 0 5.508.011 6.666 1.142 1.13 1.157 1.14 3.518 1.141 6.666-3.496-.106-5.094-.193-6.37-1.438z" fill="url(#paint0_linear)"/><path d="M22.895 15.088v-.174c-3.496-.106-5.095-.193-6.37-1.438-1.244-1.275-1.332-2.874-1.438-6.37h-.174c-.106 3.496-.193 5.095-1.438 6.37-1.275 1.245-2.874 1.332-6.37 1.438v.174c3.496.106 5.095.193 6.37 1.438 1.245 1.275 1.332 2.874 1.438 6.37h.174c.106-3.496.194-5.095 1.439-6.37 1.274-1.245 2.873-1.332 6.369-1.438z" fill="#fff"/></g><defs><linearGradient id="paint0_linear" x1="22.895" y1="22.895" x2="22.895" y2="7.105" gradientUnits="userSpaceOnUse"><stop stop-color="#fff" stop-opacity=".01"/><stop offset=".475" stop-color="#fff" stop-opacity=".01"/><stop offset=".76" stop-color="#fff" stop-opacity=".043"/><stop offset=".995" stop-color="#fff" stop-opacity=".099"/><stop offset="1" stop-color="#fff" stop-opacity=".1"/></linearGradient><clipPath id="clip0"><path fill="#fff" transform="translate(7.105 7.105)" d="M0 0h15.79v15.79H0z"/></clipPath></defs></svg>