<svg width="35" height="35" fill="none" xmlns="http://www.w3.org/2000/svg"><circle cx="17.5" cy="17.5" r="16.5" stroke="#000" stroke-width="2"/><g clip-path="url(#clip0)" fill-rule="evenodd" clip-rule="evenodd"><path d="M17.398 8.29c-3.797 0-6.428.013-7.778 1.331-1.318 1.35-1.331 4.104-1.331 7.777 4.078-.122 5.943-.225 7.43-1.677 1.453-1.488 1.556-3.353 1.679-7.431zM9.62 25.38c-1.319-1.35-1.331-4.105-1.331-7.778 4.078.123 5.943.225 7.43 1.678 1.453 1.487 1.555 3.352 1.678 7.43-3.796 0-6.427-.012-7.777-1.33zm7.981 1.33c.123-4.078.225-5.943 1.678-7.43 1.487-1.453 3.352-1.555 7.43-1.678 0 3.673-.012 6.427-1.33 7.777-1.351 1.32-3.982 1.331-7.778 1.331zm0-18.42c.123 4.078.225 5.943 1.678 7.43 1.487 1.453 3.352 1.556 7.43 1.678 0-3.672-.012-6.427-1.33-7.777C24.027 8.303 21.396 8.29 17.6 8.29z" fill="#000"/><path d="M19.279 19.28c-1.453 1.487-1.555 3.352-1.678 7.43 3.797 0 6.427-.012 7.777-1.33 1.319-1.35 1.331-4.105 1.332-7.778-4.079.123-5.944.225-7.431 1.678zm-10.99-1.678c0 3.673.012 6.427 1.33 7.777 1.351 1.32 3.982 1.331 7.778 1.331-.123-4.078-.225-5.943-1.677-7.43-1.488-1.453-3.353-1.555-7.431-1.678zm9.109-9.312c-3.797 0-6.428.013-7.778 1.331-1.318 1.35-1.331 4.104-1.331 7.777 4.078-.122 5.943-.225 7.43-1.677 1.453-1.488 1.556-3.353 1.679-7.431zm1.88 7.43c-1.452-1.487-1.554-3.352-1.677-7.43 3.797 0 6.427.013 7.777 1.331 1.319 1.35 1.331 4.104 1.332 7.777-4.079-.122-5.944-.225-7.431-1.677z" fill="url(#paint0_linear)"/><path d="M26.71 17.603v-.204c-4.079-.123-5.944-.225-7.431-1.678-1.453-1.487-1.555-3.352-1.678-7.43h-.204c-.123 4.078-.225 5.943-1.677 7.43-1.488 1.453-3.353 1.555-7.431 1.678v.204c4.078.123 5.943.225 7.43 1.677 1.453 1.488 1.555 3.353 1.678 7.431h.204c.123-4.078.225-5.943 1.678-7.43 1.487-1.453 3.352-1.555 7.43-1.678z" fill="#fff"/></g><defs><linearGradient id="paint0_linear" x1="26.71" y1="26.71" x2="26.71" y2="8.29" gradientUnits="userSpaceOnUse"><stop stop-color="#fff" stop-opacity=".01"/><stop offset=".475" stop-color="#fff" stop-opacity=".01"/><stop offset=".76" stop-color="#fff" stop-opacity=".043"/><stop offset=".995" stop-color="#fff" stop-opacity=".099"/><stop offset="1" stop-color="#fff" stop-opacity=".1"/></linearGradient><clipPath id="clip0"><path fill="#fff" transform="translate(8.289 8.29)" d="M0 0h18.421v18.421H0z"/></clipPath></defs></svg>